<svg width="1295" height="283" viewBox="0 0 1295 283" fill="none" xmlns="http://www.w3.org/2000/svg">
<path d="M1061.77 278.666V4.3125H1293.97V56.2477H1127.25V115.71H1275.53V164.258H1127.25V226.731H1294.73V278.666H1061.77Z" fill="#F1F1F1"/>
<path d="M913.776 282.053C822.701 282.053 781.303 244.796 780.551 191.355H849.045C849.798 219.957 872.755 236.892 916.034 236.892C954.797 236.892 974.743 224.097 974.743 202.645C974.743 175.172 954.421 172.162 905.873 166.14C828.346 157.108 787.701 139.42 787.701 85.2265C787.701 31.4095 834.744 0.925781 911.518 0.925781C983.023 0.925781 1028.18 31.0332 1032.32 83.7211H966.088C963.077 57.3771 941.625 45.7105 908.883 45.7105C874.636 45.7105 855.067 58.1298 855.067 78.0759C855.067 101.786 872.002 105.549 923.185 111.57C1002.97 120.979 1042.49 136.785 1042.49 197.376C1042.49 250.441 996.948 282.053 913.776 282.053Z" fill="#F1F1F1"/>
<path d="M539.68 278.666V4.3125H771.883V56.2477H605.163V115.71H753.442V164.258H605.163V226.731H772.636V278.666H539.68Z" fill="#F1F1F1"/>
<path d="M284.887 278.666V4.3125H517.09V56.2477H350.37V115.71H498.649V164.258H350.37V226.731H517.843V278.666H284.887Z" fill="#F1F1F1"/>
<path d="M0.320312 278.666V4.3125H162.148C220.481 4.3125 265.265 25.764 265.265 85.2261C265.265 117.968 247.201 144.312 215.212 152.215V154.849C244.943 160.118 258.491 177.054 258.491 208.666V246.301C258.491 256.838 258.491 267.752 263.384 278.666H197.524C194.137 271.892 193.008 261.354 193.008 246.301V218.075C193.008 194.365 184.352 180.817 151.234 180.817H65.8039V278.666H0.320312ZM65.8039 133.398H148.976C186.61 133.398 199.029 116.839 199.029 92.3766C199.029 63.7746 178.707 53.9897 148.976 53.9897H65.8039V133.398Z" fill="#F1F1F1"/>
</svg>
